<?xml version="1.0" encoding="UTF-8" standalone="no"?>
<svg
   viewBox="0 0 512 512"
   version="1.1"
   id="svg4"
   sodipodi:docname="favicon.svg"
   inkscape:version="1.2.1 (9c6d41e410, 2022-07-14)"
   xmlns:inkscape="http://www.inkscape.org/namespaces/inkscape"
   xmlns:sodipodi="http://sodipodi.sourceforge.net/DTD/sodipodi-0.dtd"
   xmlns="http://www.w3.org/2000/svg"
   xmlns:svg="http://www.w3.org/2000/svg">
  <defs
     id="defs8" />
  <sodipodi:namedview
     id="namedview6"
     pagecolor="#ffffff"
     bordercolor="#666666"
     borderopacity="1.0"
     inkscape:showpageshadow="2"
     inkscape:pageopacity="0.0"
     inkscape:pagecheckerboard="0"
     inkscape:deskcolor="#d1d1d1"
     showgrid="false"
     inkscape:zoom="1"
     inkscape:cx="147"
     inkscape:cy="244"
     inkscape:window-width="1920"
     inkscape:window-height="1057"
     inkscape:window-x="1912"
     inkscape:window-y="-8"
     inkscape:window-maximized="1"
     inkscape:current-layer="svg4" />
  <rect
     style="fill:#e7e7e7;fill-opacity:1;stroke:none;stroke-width:6.21651;stroke-linecap:square;stroke-linejoin:round"
     id="rect796"
     width="505.78351"
     height="505.78351"
     x="3.108252"
     y="3.108252"
     rx="70"
     ry="70" />
  <!--! Font Awesome Free 6.2.1 by @fontawesome - https://fontawesome.com License - https://fontawesome.com/license/free (Icons: CC BY 4.0, Fonts: SIL OFL 1.1, Code: MIT License) Copyright 2022 Fonticons, Inc. -->
  <path
     d="m 185.34819,51.109755 c 0,-11.745863 -9.44968,-21.195543 -21.19554,-21.195543 -11.74586,0 -21.19554,9.44968 -21.19554,21.195543 v 35.325904 c -31.17511,0 -56.521451,25.346341 -56.521451,56.521451 H 51.109755 c -11.745863,0 -21.195543,9.44968 -21.195543,21.19554 0,11.74586 9.44968,21.19554 21.195543,21.19554 h 35.325904 v 49.45627 H 51.109755 c -11.745863,0 -21.195543,9.44968 -21.195543,21.19554 0,11.74586 9.44968,21.19554 21.195543,21.19554 h 35.325904 v 49.45627 H 51.109755 c -11.745863,0 -21.195543,9.44968 -21.195543,21.19554 0,11.74586 9.44968,21.19554 21.195543,21.19554 h 35.325904 c 0,31.17511 25.346341,56.52145 56.521451,56.52145 v 35.32591 c 0,11.74586 9.44968,21.19554 21.19554,21.19554 11.74586,0 21.19554,-9.44968 21.19554,-21.19554 v -35.32591 h 49.45627 v 35.32591 c 0,11.74586 9.44968,21.19554 21.19554,21.19554 11.74586,0 21.19554,-9.44968 21.19554,-21.19554 v -35.32591 h 49.45627 v 35.32591 c 0,11.74586 9.44968,21.19554 21.19554,21.19554 11.74586,0 21.19554,-9.44968 21.19554,-21.19554 v -35.32591 c 31.17511,0 56.52145,-25.34634 56.52145,-56.52145 h 35.32591 c 11.74586,0 21.19554,-9.44968 21.19554,-21.19554 0,-11.74586 -9.44968,-21.19554 -21.19554,-21.19554 h -35.32591 v -49.45627 h 35.32591 c 11.74586,0 21.19554,-9.44968 21.19554,-21.19554 0,-11.74586 -9.44968,-21.19554 -21.19554,-21.19554 h -35.32591 v -49.45627 h 35.32591 c 11.74586,0 21.19554,-9.44968 21.19554,-21.19554 0,-11.74586 -9.44968,-21.19554 -21.19554,-21.19554 h -35.32591 c 0,-31.17511 -25.34634,-56.521451 -56.52145,-56.521451 V 51.109755 c 0,-11.745863 -9.44968,-21.195543 -21.19554,-21.195543 -11.74586,0 -21.19554,9.44968 -21.19554,21.195543 V 86.435659 H 277.19554 V 51.109755 c 0,-11.745863 -9.44968,-21.195543 -21.19554,-21.195543 -11.74586,0 -21.19554,9.44968 -21.19554,21.195543 v 35.325904 h -49.45627 z m -14.13036,91.847355 h 169.56434 c 15.63171,0 28.26072,12.62901 28.26072,28.26072 v 169.56434 c 0,15.63171 -12.62901,28.26072 -28.26072,28.26072 H 171.21783 c -15.63171,0 -28.26072,-12.62901 -28.26072,-28.26072 V 171.21783 c 0,-15.63171 12.62901,-28.26072 28.26072,-28.26072 z m 169.56434,28.26072 H 171.21783 v 169.56434 h 169.56434 z"
     id="path2"
     style="stroke-width:0.883148" />
</svg>
